<svg width="382" height="273" viewBox="0 0 382 273" fill="none" xmlns="http://www.w3.org/2000/svg">
<g clip-path="url(#clip0_1383_9809)">
<path d="M-32.3506 196.269L239.387 40.7076L511.125 196.269L239.387 351.831L-32.3506 196.269Z" fill="url(#paint0_linear_1383_9809)"/>
<path d="M349.665 203.336V102.496L239.387 165.521V266.361L349.665 203.336Z" fill="#4A9BD8"/>
<path d="M347.099 140.443L364.746 150.53V175.74L347.099 165.653V140.443Z" fill="#479EC9"/>
<path d="M364.746 175.74L366.95 174.479V149.269L364.746 150.53V175.74Z" fill="#1E4054"/>
<path d="M366.95 149.268L349.303 139.181L347.099 140.443L364.746 150.53L366.95 149.268Z" fill="#152D42"/>
<path d="M347.099 148.007L340.481 144.228L342.685 142.966L347.099 145.484V148.007Z" fill="#152D42"/>
<path d="M340.481 144.227V146.745L347.099 150.53V148.006L340.481 144.227Z" fill="#1E4054"/>
<path d="M347.099 160.612L340.481 156.832L342.685 155.571L347.099 158.089V160.612Z" fill="#152D42"/>
<path d="M340.481 156.832V159.35L347.099 163.135V160.612L340.481 156.832Z" fill="#1E4054"/>
<path d="M264.049 221.659V223.567L281.702 213.969V212.061L264.049 221.659Z" fill="#3A7DAF"/>
<path d="M286.073 209.37L272.961 201.222L264.097 206.284L264.049 221.659L286.073 209.685" fill="#418BCC"/>
<path d="M264.018 231.568V226.491L281.702 216.43L286.153 218.779L264.018 231.568Z" fill="#152D42"/>
<path d="M286.073 218.779V193.727L281.702 196.224V216.429L286.073 218.779Z" fill="#1E4054"/>
<path d="M264.097 206.285L264.018 231.568L286.153 218.779L286.073 193.727L264.097 206.285Z" fill="url(#paint1_linear_1383_9809)"/>
<path d="M296.806 228.184L314.076 218.317V198.138L305.441 193.097L300.842 195.615L296.806 193.307V228.184Z" fill="#3A7DAF"/>
<path d="M296.806 223.133L309.669 215.784L300.842 210.743L296.806 213.051V223.133Z" fill="#9ED2FF"/>
<path d="M314.076 198.137L296.806 188.05V182.799L314.076 172.927V198.137Z" fill="#152D42"/>
<path d="M318.113 221.04L314.077 218.317V172.927H320.396L318.113 185.906" fill="#1E4054"/>
<path d="M279.716 176.192V183.54L300.842 195.615V188.271L279.716 176.192Z" fill="#1E4054"/>
<path d="M300.842 188.272V195.615L340.545 172.928V165.58L300.842 188.272Z" fill="#479EC9"/>
<path d="M300.842 188.272L279.716 176.192L318.49 152.974L340.545 165.579L300.842 188.272Z" fill="#152D42"/>
<path d="M314.076 218.317L318.113 221.04L296.806 233.214V228.183L314.076 218.317Z" fill="#152D42"/>
<path d="M129.22 202.942V102.102L239.498 165.127V265.967L129.22 202.942Z" fill="#52AEFF"/>
<path d="M199.795 207.983L214.888 198.894V196.519L199.795 205.465V207.983Z" fill="#2E6587"/>
<path d="M199.795 205.465L155.684 179.882V182.773L199.795 207.983V205.465Z" fill="#3A7DAF"/>
<path d="M155.684 179.882L173.331 170.168L214.888 196.519L199.795 205.465L155.684 179.882Z" fill="#418BCC"/>
<path d="M199.795 207.982V213.023L201.521 214.012V206.947L199.795 207.982Z" fill="#2E6587"/>
<path d="M199.795 207.983L198.61 207.305V212.351L199.795 213.024V207.983Z" fill="#3A7DAF"/>
<path d="M155.684 182.773V187.814L156.666 188.377V183.336L155.684 182.773Z" fill="#3A7DAF"/>
<path d="M157.622 183.882V188.881L156.666 188.377V183.336L157.622 183.882Z" fill="#2E6587"/>
<path d="M162.301 173.953V176.235L161.425 176.723V174.453L162.301 173.953Z" fill="#2E6587"/>
<path d="M204.208 209.344L214.888 203.042V215.447L204.208 209.344Z" fill="#418BCC"/>
<path d="M204.208 209.344V215.547L205.227 216.13V209.928L204.208 209.344Z" fill="#3A7DAF"/>
<path d="M205.997 210.369V216.572L205.227 216.13V209.928L205.997 210.369Z" fill="#2E6587"/>
<path d="M214.888 216.609L204.208 210.506V209.344L214.888 215.447V216.609Z" fill="#3A7DAF"/>
<path d="M151.276 180.255L162.301 173.953L151.276 167.65V180.255Z" fill="#418BCC"/>
<path d="M151.276 180.255V181.322L161.425 175.645V174.452" fill="#2E6587"/>
<path d="M142.449 190.337L151.276 185.296V149.999L142.449 144.958V190.337Z" fill="#1E4054"/>
<path d="M142.449 190.337L214.888 231.732V221.65L151.276 185.297L142.449 190.337Z" fill="#152D42"/>
<path d="M195.519 217.019L199.917 214.422L193.177 210.642L188.77 213.16L195.519 217.019Z" fill="#9ED2FF"/>
<path d="M188.77 213.16V214.553L195.519 218.411V217.018L199.917 214.422V215.815L195.519 218.411V217.018L188.77 213.16Z" fill="white"/>
<path d="M214.888 221.65V186.353L142.449 144.958V190.337L214.888 231.732V221.65Z" fill="url(#paint2_linear_1383_9809)"/>
<path d="M217.267 211.599V192.544L233.937 183.014V202.074L217.267 211.599Z" fill="#CCCCCC"/>
<path d="M217.267 173.484L200.591 184.066V202.074L217.267 211.599V193.853L233.937 183.014L217.267 173.484Z" fill="#418BCC"/>
<path d="M200.591 163.953L183.916 174.792V192.543L200.591 202.073V184.322L217.267 173.483L200.591 163.953Z" fill="white"/>
<path d="M183.916 154.424L167.24 165.263V183.014L183.916 192.544V174.793L200.591 163.954L183.916 154.424Z" fill="#418BCC"/>
<path d="M167.24 144.894L150.57 155.733V173.484L167.24 183.014V165.263L183.916 154.424L167.24 144.894Z" fill="white"/>
<path d="M150.569 135.364L133.894 146.203V163.954L150.569 173.484V155.733L167.24 144.894L150.569 135.364Z" fill="#418BCC"/>
<path d="M133.894 125.834L117.218 136.941V154.424L133.894 163.954V146.203L150.57 135.364L133.894 125.834Z" fill="white"/>
<path d="M200.591 184.323L217.267 193.853L233.937 183.014L217.267 173.484L200.591 184.323Z" fill="#3A7DAF"/>
<path d="M200.591 184.322L183.916 174.792L200.591 163.953L217.267 173.483L200.591 184.322Z" fill="#EAEAEA"/>
<path d="M183.916 174.793L167.24 165.263L183.916 154.424L200.591 163.954L183.916 174.793Z" fill="#3A7DAF"/>
<path d="M167.24 165.263L183.916 154.424L167.24 144.894L150.57 155.733L167.24 165.263Z" fill="#EAEAEA"/>
<path d="M150.569 155.733L133.894 146.203L150.569 135.364L167.24 144.894L150.569 155.733Z" fill="#3A7DAF"/>
<path d="M150.57 135.364L133.894 125.834L117.218 136.941L133.894 146.203L150.57 135.364Z" fill="#EAEAEA"/>
<path d="M100.542 79.4147L239.498 158.824L378.453 79.4147L239.498 0L100.542 79.4147Z" fill="#9DDCFC"/>
<path d="M360.805 79.4152L349.775 85.7177L239.498 22.6927V10.0876L360.805 79.4152Z" fill="#92D5EF"/>
<path d="M239.498 22.6927V10.0876L118.19 79.4152L129.22 85.7177L239.498 22.6927Z" fill="#7EBFE0"/>
<path d="M208.621 102.102V117.23L243.911 97.0606V81.9325L208.621 102.102Z" fill="#4BA6DD"/>
<path d="M160.097 74.369L208.621 102.102V117.23L160.097 89.4971V74.369Z" fill="#53B5E5"/>
<path d="M243.911 97.0606V81.9325L208.621 102.102" fill="#4BA6DD"/>
<path d="M160.097 74.369L195.387 54.2052L243.911 81.9331L208.621 102.102L160.097 74.369Z" fill="#52AEFF"/>
<path d="M177.739 79.452L204.208 64.3239L195.387 59.283L168.918 74.4111L177.739 79.452Z" fill="#152D42"/>
<path d="M195.387 62.3107L171.68 75.988L168.918 74.4111L195.387 59.283V62.3107Z" fill="#4BA6DD"/>
<path d="M195.387 59.2831V62.3108L201.537 65.8537L204.208 64.324L195.387 59.2831Z" fill="#4290B7"/>
<path d="M193.177 88.2357L219.646 73.1129L210.825 68.0667L184.356 83.1948L193.177 88.2357Z" fill="#152D42"/>
<path d="M210.825 71.0944L187.123 84.7717L184.356 83.1948L210.825 68.0667V71.0944Z" fill="#4BA6DD"/>
<path d="M210.825 68.0667V71.0944L216.975 74.6372L219.646 73.1129L210.825 68.0667Z" fill="#4290B7"/>
<path d="M208.44 97.0977L234.909 81.9695L226.088 76.9286L199.619 92.0567L208.44 97.0977Z" fill="#152D42"/>
<path d="M226.088 79.9563L202.386 93.6336L199.619 92.0567L226.088 76.9286V79.9563Z" fill="#4BA6DD"/>
<path d="M226.088 76.9286V79.9563L232.238 83.4992L234.909 81.9695L226.088 76.9286Z" fill="#4290B7"/>
<path d="M265.966 89.4964V81.9324L292.43 97.0605V104.625L265.966 89.4964Z" fill="#53B5E5"/>
<path d="M292.43 97.0607V104.625L310.077 94.5376V86.9735L292.43 97.0607Z" fill="#4A9BD8"/>
<path d="M265.966 81.9325L292.43 97.0606L310.077 86.9735L283.609 71.8506L265.966 81.9325Z" fill="#52AEFF"/>
<path d="M239.498 181.511V158.824L378.453 79.4148V102.102L239.498 181.511Z" fill="#7FBEDD"/>
<path d="M100.542 79.4148V102.102L239.498 181.511V158.824L100.542 79.4148Z" fill="#89D3FF"/>
</g>
<defs>
<linearGradient id="paint0_linear_1383_9809" x1="491.115" y1="65.2282" x2="262.021" y2="492.827" gradientUnits="userSpaceOnUse">
<stop stop-color="#89D3FF"/>
<stop offset="1" stop-color="#89D3FF" stop-opacity="0"/>
</linearGradient>
<linearGradient id="paint1_linear_1383_9809" x1="264.712" y1="215.301" x2="286.113" y2="209.688" gradientUnits="userSpaceOnUse">
<stop stop-color="#89D3FF"/>
<stop offset="1" stop-color="#89D3FF" stop-opacity="0"/>
</linearGradient>
<linearGradient id="paint2_linear_1383_9809" x1="219.005" y1="177.83" x2="135.117" y2="200.155" gradientUnits="userSpaceOnUse">
<stop stop-color="#89D3FF"/>
<stop offset="1" stop-color="#89D3FF" stop-opacity="0"/>
</linearGradient>
<clipPath id="clip0_1383_9809">
<rect x="-17" width="399" height="273" rx="5" fill="white"/>
</clipPath>
</defs>
</svg>
