<svg width="293" height="187" viewBox="0 0 293 187" fill="none" xmlns="http://www.w3.org/2000/svg">
<g clip-path="url(#clip0_742_15)">
<path d="M10.228 134.441L195.675 27.884L381.121 134.441L195.675 240.998L10.228 134.441Z" fill="url(#paint0_linear_742_15)"/>
<path d="M270.933 139.282V70.208L195.675 113.379V182.453L270.933 139.282Z" fill="#4A9BD8"/>
<path d="M269.182 96.2004L281.225 103.11V120.378L269.182 113.469V96.2004Z" fill="#479EC9"/>
<path d="M281.225 120.379L282.729 119.515V102.246L281.225 103.11V120.379Z" fill="#1E4054"/>
<path d="M282.729 102.246L270.686 95.3364L269.182 96.2006L281.225 103.11L282.729 102.246Z" fill="#152D42"/>
<path d="M269.182 101.382L264.666 98.7936L266.17 97.9294L269.182 99.6541V101.382Z" fill="#152D42"/>
<path d="M264.666 98.793V100.518L269.182 103.11V101.382L264.666 98.793Z" fill="#1E4054"/>
<path d="M269.182 110.016L264.666 107.427L266.17 106.563L269.182 108.288V110.016Z" fill="#152D42"/>
<path d="M264.666 107.427V109.152L269.182 111.744V110.016L264.666 107.427Z" fill="#1E4054"/>
<path d="M212.505 151.832V153.139L224.552 146.565V145.258L212.505 151.832Z" fill="#3A7DAF"/>
<path d="M227.535 143.414L218.587 137.833L212.538 141.301L212.505 151.832L227.535 143.63" fill="#418BCC"/>
<path d="M212.483 158.62V155.142L224.552 148.25L227.589 149.86L212.483 158.62Z" fill="#152D42"/>
<path d="M227.535 149.86V132.699L224.552 134.409V148.25L227.535 149.86Z" fill="#1E4054"/>
<path d="M212.538 141.301L212.483 158.62L227.589 149.86L227.535 132.699L212.538 141.301Z" fill="url(#paint1_linear_742_15)"/>
<path d="M234.86 156.302L246.646 149.543V135.721L240.753 132.268L237.614 133.992L234.86 132.412V156.302Z" fill="#3A7DAF"/>
<path d="M234.86 152.842L243.638 147.808L237.614 144.355L234.86 145.936V152.842Z" fill="#9ED2FF"/>
<path d="M246.646 135.721L234.86 128.811V125.214L246.646 118.452V135.721Z" fill="#152D42"/>
<path d="M249.4 151.408L246.646 149.543V118.452H250.959L249.4 127.342" fill="#1E4054"/>
<path d="M223.197 120.688V125.722L237.614 133.992V128.962L223.197 120.688Z" fill="#1E4054"/>
<path d="M237.614 128.963V133.993L264.709 118.453V113.419L237.614 128.963Z" fill="#479EC9"/>
<path d="M237.614 128.963L223.197 120.688L249.658 104.785L264.709 113.419L237.614 128.963Z" fill="#152D42"/>
<path d="M246.646 149.543L249.4 151.408L234.86 159.747V156.301L246.646 149.543Z" fill="#152D42"/>
<path d="M120.491 139.012V69.938L195.75 113.109V182.183L120.491 139.012Z" fill="#52AEFF"/>
<path d="M168.655 142.464L178.955 136.239V134.612L168.655 140.74V142.464Z" fill="#2E6587"/>
<path d="M168.655 140.74L138.551 123.216V125.196L168.655 142.465V140.74Z" fill="#3A7DAF"/>
<path d="M138.551 123.216L150.595 116.562L178.955 134.611L168.655 140.74L138.551 123.216Z" fill="#418BCC"/>
<path d="M168.655 142.464V145.917L169.832 146.594V141.755L168.655 142.464Z" fill="#2E6587"/>
<path d="M168.655 142.464L167.846 142V145.456L168.655 145.917V142.464Z" fill="#3A7DAF"/>
<path d="M138.551 125.196V128.649L139.222 129.035V125.582L138.551 125.196Z" fill="#3A7DAF"/>
<path d="M139.874 125.956V129.38L139.222 129.034V125.581L139.874 125.956Z" fill="#2E6587"/>
<path d="M143.067 119.155V120.717L142.469 121.052V119.497L143.067 119.155Z" fill="#2E6587"/>
<path d="M171.666 143.397L178.955 139.08V147.577L171.666 143.397Z" fill="#418BCC"/>
<path d="M171.666 143.397V147.646L172.362 148.045V143.797L171.666 143.397Z" fill="#3A7DAF"/>
<path d="M172.888 144.099V148.348L172.362 148.045V143.797L172.888 144.099Z" fill="#2E6587"/>
<path d="M178.955 148.373L171.666 144.193V143.397L178.955 147.577V148.373Z" fill="#3A7DAF"/>
<path d="M135.543 123.472L143.067 119.155L135.543 114.837V123.472Z" fill="#418BCC"/>
<path d="M135.543 123.472V124.203L142.469 120.314V119.497" fill="#2E6587"/>
<path d="M129.52 130.378L135.543 126.925V102.747L129.52 99.2937V130.378Z" fill="#1E4054"/>
<path d="M129.52 130.378L178.955 158.732V151.826L135.543 126.925L129.52 130.378Z" fill="#152D42"/>
<path d="M165.737 148.654L168.738 146.875L164.139 144.286L161.13 146.011L165.737 148.654Z" fill="#9ED2FF"/>
<path d="M161.13 146.011V146.965L165.737 149.608V148.654L168.738 146.875V147.829L165.737 149.608V148.654L161.13 146.011Z" fill="white"/>
<path d="M178.955 151.826V127.648L129.52 99.2937V130.378L178.955 158.732V151.826Z" fill="url(#paint2_linear_742_15)"/>
<path d="M180.578 144.941V131.889L191.955 125.361V138.417L180.578 144.941Z" fill="#CCCCCC"/>
<path d="M180.579 118.833L169.198 126.081V138.417L180.579 144.941V132.786L191.955 125.361L180.579 118.833Z" fill="#418BCC"/>
<path d="M169.198 112.305L157.818 119.729V131.888L169.198 138.416V126.257L180.579 118.833L169.198 112.305Z" fill="white"/>
<path d="M157.818 105.777L146.438 113.202V125.361L157.818 131.889V119.73L169.198 112.305L157.818 105.777Z" fill="#418BCC"/>
<path d="M146.438 99.2498L135.061 106.674V118.833L146.438 125.361V113.202L157.818 105.778L146.438 99.2498Z" fill="white"/>
<path d="M135.061 92.7219L123.681 100.146V112.305L135.061 118.833V106.674L146.438 99.2498L135.061 92.7219Z" fill="#418BCC"/>
<path d="M123.681 86.1938L112.301 93.8019V105.777L123.681 112.305V100.146L135.061 92.7217L123.681 86.1938Z" fill="white"/>
<path d="M169.198 126.258L180.579 132.786L191.955 125.361L180.579 118.833L169.198 126.258Z" fill="#3A7DAF"/>
<path d="M169.198 126.257L157.818 119.729L169.198 112.305L180.579 118.833L169.198 126.257Z" fill="#EAEAEA"/>
<path d="M157.818 119.73L146.438 113.202L157.818 105.777L169.198 112.305L157.818 119.73Z" fill="#3A7DAF"/>
<path d="M146.438 113.202L157.818 105.778L146.438 99.2498L135.061 106.674L146.438 113.202Z" fill="#EAEAEA"/>
<path d="M135.061 106.674L123.681 100.146L135.061 92.7219L146.438 99.2498L135.061 106.674Z" fill="#3A7DAF"/>
<path d="M135.061 92.7217L123.681 86.1938L112.301 93.8019L123.681 100.146L135.061 92.7217Z" fill="#EAEAEA"/>
<path d="M100.92 54.3976L195.75 108.792L290.579 54.3976L195.75 0L100.92 54.3976Z" fill="#9DDCFC"/>
<path d="M278.536 54.398L271.008 58.7151L195.75 15.5441V6.90991L278.536 54.398Z" fill="#92D5EF"/>
<path d="M195.75 15.5441V6.90991L112.964 54.398L120.491 58.7151L195.75 15.5441Z" fill="#7EBFE0"/>
<path d="M174.678 69.9375V80.3L198.761 66.4846V56.1221L174.678 69.9375Z" fill="#4BA6DD"/>
<path d="M141.563 50.9414L174.678 69.9381V80.3006L141.563 61.3039V50.9414Z" fill="#53B5E5"/>
<path d="M198.761 66.4845V56.1221L174.678 69.9375" fill="#4BA6DD"/>
<path d="M141.563 50.9412L165.646 37.1294L198.761 56.1225L174.678 69.9379L141.563 50.9412Z" fill="#52AEFF"/>
<path d="M153.603 54.4231L171.666 44.0606L165.646 40.6077L147.583 50.9701L153.603 54.4231Z" fill="#152D42"/>
<path d="M165.646 42.6816L149.468 52.0503L147.583 50.9701L165.646 40.6077V42.6816Z" fill="#4BA6DD"/>
<path d="M165.646 40.6077V42.6816L169.843 45.1084L171.666 44.0606L165.646 40.6077Z" fill="#4290B7"/>
<path d="M164.139 60.4397L182.202 50.0808L176.182 46.6243L158.119 56.9867L164.139 60.4397Z" fill="#152D42"/>
<path d="M176.182 48.6982L160.007 58.0669L158.119 56.9867L176.182 46.6243V48.6982Z" fill="#4BA6DD"/>
<path d="M176.182 46.6243V48.6982L180.379 51.125L182.202 50.0808L176.182 46.6243Z" fill="#4290B7"/>
<path d="M174.555 66.51L192.618 56.1475L186.598 52.6946L168.535 63.0571L174.555 66.51Z" fill="#152D42"/>
<path d="M186.598 54.7685L170.423 64.1372L168.535 63.0571L186.598 52.6946V54.7685Z" fill="#4BA6DD"/>
<path d="M186.598 52.6946V54.7685L190.795 57.1953L192.618 56.1475L186.598 52.6946Z" fill="#4290B7"/>
<path d="M213.813 61.3033V56.1221L231.873 66.4846V71.6658L213.813 61.3033Z" fill="#53B5E5"/>
<path d="M231.873 66.4847V71.666L243.917 64.7564V59.5752L231.873 66.4847Z" fill="#4A9BD8"/>
<path d="M213.813 56.1222L231.873 66.4847L243.917 59.5752L225.853 49.2163L213.813 56.1222Z" fill="#52AEFF"/>
<path d="M195.75 124.332V108.792L290.579 54.3977V69.9378L195.75 124.332Z" fill="#7FBEDD"/>
<path d="M100.92 54.3977V69.9378L195.75 124.332V108.792L100.92 54.3977Z" fill="#89D3FF"/>
</g>
<defs>
<linearGradient id="paint0_linear_742_15" x1="367.465" y1="44.6802" x2="210.218" y2="337.092" gradientUnits="userSpaceOnUse">
<stop stop-color="#89D3FF"/>
<stop offset="1" stop-color="#89D3FF" stop-opacity="0"/>
</linearGradient>
<linearGradient id="paint1_linear_742_15" x1="212.957" y1="147.477" x2="227.569" y2="143.659" gradientUnits="userSpaceOnUse">
<stop stop-color="#89D3FF"/>
<stop offset="1" stop-color="#89D3FF" stop-opacity="0"/>
</linearGradient>
<linearGradient id="paint2_linear_742_15" x1="181.764" y1="121.81" x2="124.488" y2="136.997" gradientUnits="userSpaceOnUse">
<stop stop-color="#89D3FF"/>
<stop offset="1" stop-color="#89D3FF" stop-opacity="0"/>
</linearGradient>
<clipPath id="clip0_742_15">
<rect width="293" height="187" rx="5" fill="white"/>
</clipPath>
</defs>
</svg>
