<svg width="587" height="338" viewBox="0 0 587 338" fill="none" xmlns="http://www.w3.org/2000/svg">
<g clip-path="url(#clip0_466_1016)">
<path d="M0 270L370 56L740 270L370 484L0 270Z" fill="url(#paint0_linear_466_1016)"/>
<path d="M520.154 279.722V141L370 227.701V366.423L520.154 279.722Z" fill="#4A9BD8"/>
<path d="M516.66 193.201L540.689 207.078V241.758L516.66 227.882V193.201Z" fill="#479EC9"/>
<path d="M540.689 241.759L543.69 240.023V205.343L540.689 207.078V241.759Z" fill="#1E4054"/>
<path d="M543.69 205.342L519.661 191.466L516.66 193.201L540.689 207.078L543.69 205.342Z" fill="#152D42"/>
<path d="M516.66 203.607L507.65 198.408L510.651 196.673L516.66 200.137V203.607Z" fill="#152D42"/>
<path d="M507.65 198.407V201.871L516.66 207.078V203.607L507.65 198.407Z" fill="#1E4054"/>
<path d="M516.66 220.947L507.65 215.748L510.651 214.013L516.66 217.476V220.947Z" fill="#152D42"/>
<path d="M507.65 215.748V219.212L516.66 224.418V220.947L507.65 215.748Z" fill="#1E4054"/>
<path d="M403.58 304.928V307.553L427.616 294.349V291.724L403.58 304.928Z" fill="#3A7DAF"/>
<path d="M433.567 288.022L415.714 276.814L403.645 283.778L403.58 304.929L433.567 288.456" fill="#418BCC"/>
<path d="M403.537 318.56V311.575L427.616 297.734L433.676 300.967L403.537 318.56Z" fill="#152D42"/>
<path d="M433.567 300.966V266.503L427.616 269.938V297.734L433.567 300.966Z" fill="#1E4054"/>
<path d="M403.645 283.778L403.537 318.56L433.676 300.966L433.567 266.503L403.645 283.778Z" fill="url(#paint1_linear_466_1016)"/>
<path d="M448.181 313.903L471.697 300.331V272.57L459.939 265.636L453.677 269.099L448.181 265.925V313.903Z" fill="#3A7DAF"/>
<path d="M448.181 306.954L465.695 296.845L453.677 289.91L448.181 293.085V306.954Z" fill="#9ED2FF"/>
<path d="M471.697 272.57L448.181 258.693V251.469L471.697 237.889V272.57Z" fill="#152D42"/>
<path d="M477.193 304.076L471.697 300.33V237.889H480.302L477.193 255.743" fill="#1E4054"/>
<path d="M424.912 242.38V252.489L453.677 269.099V258.997L424.912 242.38Z" fill="#1E4054"/>
<path d="M453.677 258.998V269.1L507.737 237.89V227.781L453.677 258.998Z" fill="#479EC9"/>
<path d="M453.677 258.997L424.912 242.38L477.706 210.44L507.737 227.781L453.677 258.997Z" fill="#152D42"/>
<path d="M471.697 300.33L477.193 304.076L448.181 320.823V313.903L471.697 300.33Z" fill="#152D42"/>
<path d="M219.996 279.18V140.458L370.15 227.159V365.881L219.996 279.18Z" fill="#52AEFF"/>
<path d="M316.09 286.115L336.641 273.612V270.344L316.09 282.651V286.115Z" fill="#2E6587"/>
<path d="M316.09 282.651L256.028 247.457V251.434L316.09 286.115V282.651Z" fill="#3A7DAF"/>
<path d="M256.028 247.457L280.057 234.094L336.641 270.343L316.09 282.651L256.028 247.457Z" fill="#418BCC"/>
<path d="M316.09 286.114V293.049L318.44 294.408V284.689L316.09 286.114Z" fill="#2E6587"/>
<path d="M316.09 286.114L314.478 285.182V292.124L316.09 293.049V286.114Z" fill="#3A7DAF"/>
<path d="M256.028 251.434V258.369L257.366 259.143V252.208L256.028 251.434Z" fill="#3A7DAF"/>
<path d="M258.668 252.96V259.837L257.366 259.143V252.208L258.668 252.96Z" fill="#2E6587"/>
<path d="M265.038 239.301V242.439L263.845 243.112V239.988L265.038 239.301Z" fill="#2E6587"/>
<path d="M322.099 287.987L336.641 279.317V296.383L322.099 287.987Z" fill="#418BCC"/>
<path d="M322.099 287.987V296.52L323.488 297.323V288.79L322.099 287.987Z" fill="#3A7DAF"/>
<path d="M324.536 289.397V297.93L323.488 297.323V288.79L324.536 289.397Z" fill="#2E6587"/>
<path d="M336.641 297.981L322.099 289.585V287.987L336.641 296.383V297.981Z" fill="#3A7DAF"/>
<path d="M250.027 247.97L265.038 239.3L250.027 230.63V247.97Z" fill="#418BCC"/>
<path d="M250.027 247.97V249.438L263.845 241.629V239.987" fill="#2E6587"/>
<path d="M238.009 261.839L250.027 254.905V206.348L238.009 199.413V261.839Z" fill="#1E4054"/>
<path d="M238.009 261.84L336.641 318.785V304.916L250.027 254.905L238.009 261.84Z" fill="#152D42"/>
<path d="M310.269 298.544L316.256 294.972L307.08 289.773L301.078 293.236L310.269 298.544Z" fill="#9ED2FF"/>
<path d="M301.078 293.236V295.153L310.269 300.46V298.544L316.256 294.972V296.888L310.269 300.46V298.544L301.078 293.236Z" fill="white"/>
<path d="M336.641 304.915V256.358L238.009 199.413V261.839L336.641 318.784V304.915Z" fill="url(#paint2_linear_466_1016)"/>
<path d="M339.881 291.088V264.876L362.579 251.766V277.986L339.881 291.088Z" fill="#CCCCCC"/>
<path d="M339.881 238.656L317.175 253.212V277.986L339.881 291.089V266.677L362.579 251.766L339.881 238.656Z" fill="#418BCC"/>
<path d="M317.175 225.545L294.469 240.456V264.875L317.175 277.985V253.566L339.881 238.655L317.175 225.545Z" fill="white"/>
<path d="M294.469 212.435L271.763 227.346V251.765L294.469 264.875V240.456L317.175 225.545L294.469 212.435Z" fill="#418BCC"/>
<path d="M271.763 199.325L249.065 214.236V238.655L271.763 251.765V227.346L294.469 212.435L271.763 199.325Z" fill="white"/>
<path d="M249.065 186.216L226.359 201.126V225.546L249.065 238.656V214.236L271.763 199.326L249.065 186.216Z" fill="#418BCC"/>
<path d="M226.359 173.105L203.654 188.385V212.436L226.359 225.546V201.126L249.065 186.215L226.359 173.105Z" fill="white"/>
<path d="M317.175 253.567L339.881 266.677L362.579 251.766L339.881 238.656L317.175 253.567Z" fill="#3A7DAF"/>
<path d="M317.175 253.566L294.469 240.456L317.175 225.545L339.881 238.655L317.175 253.566Z" fill="#EAEAEA"/>
<path d="M294.469 240.456L271.763 227.346L294.469 212.435L317.175 225.545L294.469 240.456Z" fill="#3A7DAF"/>
<path d="M271.763 227.346L294.469 212.435L271.763 199.325L249.065 214.236L271.763 227.346Z" fill="#EAEAEA"/>
<path d="M249.065 214.236L226.359 201.126L249.065 186.216L271.763 199.326L249.065 214.236Z" fill="#3A7DAF"/>
<path d="M249.065 186.215L226.359 173.105L203.654 188.385L226.359 201.126L249.065 186.215Z" fill="#EAEAEA"/>
<path d="M180.948 109.248L370.15 218.488L559.352 109.248L370.15 0L180.948 109.248Z" fill="#9DDCFC"/>
<path d="M535.323 109.248L520.304 117.918L370.15 31.2172V13.877L535.323 109.248Z" fill="#92D5EF"/>
<path d="M370.15 31.2172V13.877L204.977 109.248L219.996 117.918L370.15 31.2172Z" fill="#7EBFE0"/>
<path d="M328.108 140.457V161.268L376.159 133.522V112.711L328.108 140.457Z" fill="#4BA6DD"/>
<path d="M262.038 102.306L328.108 140.457V161.268L262.038 123.117V102.306Z" fill="#53B5E5"/>
<path d="M376.159 133.522V112.711L328.108 140.457" fill="#4BA6DD"/>
<path d="M262.038 102.306L310.088 74.5676L376.159 112.712L328.108 140.458L262.038 102.306Z" fill="#52AEFF"/>
<path d="M286.059 109.299L322.099 88.4876L310.088 81.553L274.048 102.364L286.059 109.299Z" fill="#152D42"/>
<path d="M310.088 85.7181L277.809 104.533L274.048 102.364L310.088 81.553V85.7181Z" fill="#4BA6DD"/>
<path d="M310.088 81.5531V85.7182L318.462 90.592L322.099 88.4877L310.088 81.5531Z" fill="#4290B7"/>
<path d="M307.08 121.383L343.12 100.579L331.109 93.6367L295.069 114.448L307.08 121.383Z" fill="#152D42"/>
<path d="M331.109 97.8018L298.837 116.617L295.069 114.448L331.109 93.6367V97.8018Z" fill="#4BA6DD"/>
<path d="M331.109 93.6367V97.8018L339.483 102.676L343.12 100.579L331.109 93.6367Z" fill="#4290B7"/>
<path d="M327.862 133.573L363.902 112.762L351.891 105.827L315.852 126.639L327.862 133.573Z" fill="#152D42"/>
<path d="M351.891 109.993L319.619 128.808L315.852 126.639L351.891 105.827V109.993Z" fill="#4BA6DD"/>
<path d="M351.891 105.828V109.993L360.265 114.866L363.902 112.762L351.891 105.828Z" fill="#4290B7"/>
<path d="M406.19 123.117V112.712L442.223 133.523V143.928L406.19 123.117Z" fill="#53B5E5"/>
<path d="M442.223 133.523V143.928L466.252 130.052V119.646L442.223 133.523Z" fill="#4A9BD8"/>
<path d="M406.19 112.712L442.223 133.523L466.252 119.646L430.212 98.8425L406.19 112.712Z" fill="#52AEFF"/>
<path d="M370.15 249.698V218.488L559.352 109.248V140.457L370.15 249.698Z" fill="#7FBEDD"/>
<path d="M180.948 109.248V140.457L370.15 249.698V218.488L180.948 109.248Z" fill="#89D3FF"/>
</g>
<defs>
<linearGradient id="paint0_linear_466_1016" x1="712.754" y1="89.732" x2="395.812" y2="675.253" gradientUnits="userSpaceOnUse">
<stop stop-color="#89D3FF"/>
<stop offset="1" stop-color="#89D3FF" stop-opacity="0"/>
</linearGradient>
<linearGradient id="paint1_linear_466_1016" x1="404.482" y1="296.182" x2="433.66" y2="288.607" gradientUnits="userSpaceOnUse">
<stop stop-color="#89D3FF"/>
<stop offset="1" stop-color="#89D3FF" stop-opacity="0"/>
</linearGradient>
<linearGradient id="paint2_linear_466_1016" x1="342.247" y1="244.634" x2="227.871" y2="274.761" gradientUnits="userSpaceOnUse">
<stop stop-color="#89D3FF"/>
<stop offset="1" stop-color="#89D3FF" stop-opacity="0"/>
</linearGradient>
<clipPath id="clip0_466_1016">
<rect width="587" height="338" fill="white"/>
</clipPath>
</defs>
</svg>
