<svg width="382" height="273" viewBox="0 0 382 273" fill="none" xmlns="http://www.w3.org/2000/svg">
<g clip-path="url(#clip0_1511_14355)">
<path d="M-81.3506 196.269L190.387 40.7076L462.125 196.269L190.387 351.831L-81.3506 196.269Z" fill="url(#paint0_linear_1511_14355)"/>
<path d="M300.665 203.336V102.496L190.388 165.521V266.361L300.665 203.336Z" fill="#4A9BD8"/>
<path d="M298.099 140.443L315.746 150.53V175.74L298.099 165.653V140.443Z" fill="#479EC9"/>
<path d="M315.746 175.74L317.95 174.479V149.269L315.746 150.53V175.74Z" fill="#1E4054"/>
<path d="M317.95 149.268L300.303 139.181L298.099 140.443L315.746 150.53L317.95 149.268Z" fill="#152D42"/>
<path d="M298.099 148.007L291.481 144.228L293.685 142.966L298.099 145.484V148.007Z" fill="#152D42"/>
<path d="M291.481 144.227V146.745L298.099 150.53V148.006L291.481 144.227Z" fill="#1E4054"/>
<path d="M298.099 160.612L291.481 156.832L293.685 155.571L298.099 158.089V160.612Z" fill="#152D42"/>
<path d="M291.481 156.832V159.35L298.099 163.135V160.612L291.481 156.832Z" fill="#1E4054"/>
<path d="M215.049 221.659V223.567L232.702 213.969V212.061L215.049 221.659Z" fill="#3A7DAF"/>
<path d="M237.072 209.37L223.96 201.222L215.097 206.284L215.049 221.659L237.072 209.685" fill="#418BCC"/>
<path d="M215.018 231.568V226.491L232.702 216.43L237.153 218.779L215.018 231.568Z" fill="#152D42"/>
<path d="M237.073 218.779V193.727L232.702 196.224V216.429L237.073 218.779Z" fill="#1E4054"/>
<path d="M215.097 206.285L215.018 231.568L237.153 218.779L237.073 193.727L215.097 206.285Z" fill="url(#paint1_linear_1511_14355)"/>
<path d="M247.807 228.184L265.077 218.317V198.138L256.442 193.097L251.843 195.615L247.807 193.307V228.184Z" fill="#3A7DAF"/>
<path d="M247.807 223.133L260.669 215.784L251.843 210.743L247.807 213.051V223.133Z" fill="#9ED2FF"/>
<path d="M265.077 198.137L247.807 188.05V182.799L265.077 172.927V198.137Z" fill="#152D42"/>
<path d="M269.113 221.04L265.077 218.317V172.927H271.397L269.113 185.906" fill="#1E4054"/>
<path d="M230.717 176.192V183.54L251.843 195.615V188.271L230.717 176.192Z" fill="#1E4054"/>
<path d="M251.843 188.272V195.615L291.546 172.928V165.58L251.843 188.272Z" fill="#479EC9"/>
<path d="M251.843 188.272L230.717 176.192L269.49 152.974L291.546 165.579L251.843 188.272Z" fill="#152D42"/>
<path d="M265.077 218.317L269.113 221.04L247.807 233.214V228.183L265.077 218.317Z" fill="#152D42"/>
<path d="M80.2207 202.942V102.102L190.498 165.127V265.967L80.2207 202.942Z" fill="#52AEFF"/>
<path d="M150.795 207.983L165.888 198.894V196.519L150.795 205.465V207.983Z" fill="#2E6587"/>
<path d="M150.794 205.465L106.684 179.882V182.773L150.794 207.983V205.465Z" fill="#3A7DAF"/>
<path d="M106.684 179.882L124.331 170.168L165.888 196.519L150.795 205.465L106.684 179.882Z" fill="#418BCC"/>
<path d="M150.795 207.982V213.023L152.521 214.012V206.947L150.795 207.982Z" fill="#2E6587"/>
<path d="M150.795 207.983L149.61 207.305V212.351L150.795 213.024V207.983Z" fill="#3A7DAF"/>
<path d="M106.684 182.773V187.814L107.666 188.377V183.336L106.684 182.773Z" fill="#3A7DAF"/>
<path d="M108.622 183.882V188.881L107.666 188.376V183.336L108.622 183.882Z" fill="#2E6587"/>
<path d="M113.301 173.953V176.235L112.425 176.723V174.453L113.301 173.953Z" fill="#2E6587"/>
<path d="M155.208 209.344L165.888 203.042V215.447L155.208 209.344Z" fill="#418BCC"/>
<path d="M155.208 209.344V215.547L156.228 216.13V209.928L155.208 209.344Z" fill="#3A7DAF"/>
<path d="M156.998 210.369V216.572L156.228 216.13V209.928L156.998 210.369Z" fill="#2E6587"/>
<path d="M165.888 216.609L155.208 210.506V209.344L165.888 215.447V216.609Z" fill="#3A7DAF"/>
<path d="M102.276 180.255L113.301 173.953L102.276 167.65V180.255Z" fill="#418BCC"/>
<path d="M102.276 180.255V181.322L112.425 175.645V174.452" fill="#2E6587"/>
<path d="M93.4502 190.337L102.277 185.296V149.999L93.4502 144.958V190.337Z" fill="#1E4054"/>
<path d="M93.4502 190.338L165.889 231.732V221.65L102.277 185.297L93.4502 190.338Z" fill="#152D42"/>
<path d="M146.52 217.019L150.918 214.422L144.178 210.643L139.771 213.16L146.52 217.019Z" fill="#9ED2FF"/>
<path d="M139.771 213.16V214.553L146.52 218.411V217.018L150.918 214.422V215.815L146.52 218.411V217.018L139.771 213.16Z" fill="white"/>
<path d="M165.889 221.65V186.353L93.4502 144.958V190.337L165.889 231.732V221.65Z" fill="url(#paint2_linear_1511_14355)"/>
<path d="M168.267 211.599V192.544L184.937 183.014V202.074L168.267 211.599Z" fill="#CCCCCC"/>
<path d="M168.267 173.484L151.591 184.066V202.074L168.267 211.599V193.853L184.937 183.014L168.267 173.484Z" fill="#418BCC"/>
<path d="M151.591 163.953L134.915 174.792V192.543L151.591 202.073V184.322L168.266 173.483L151.591 163.953Z" fill="white"/>
<path d="M134.915 154.424L118.239 165.263V183.014L134.915 192.544V174.793L151.591 163.954L134.915 154.424Z" fill="#418BCC"/>
<path d="M118.24 144.894L101.569 155.733V173.484L118.24 183.014V165.263L134.915 154.424L118.24 144.894Z" fill="white"/>
<path d="M101.569 135.364L84.8936 146.203V163.954L101.569 173.484V155.733L118.24 144.894L101.569 135.364Z" fill="#418BCC"/>
<path d="M84.8935 125.834L68.2178 136.941V154.424L84.8935 163.954V146.203L101.569 135.364L84.8935 125.834Z" fill="white"/>
<path d="M151.591 184.323L168.267 193.853L184.937 183.014L168.267 173.484L151.591 184.323Z" fill="#3A7DAF"/>
<path d="M151.591 184.322L134.915 174.792L151.591 163.953L168.266 173.483L151.591 184.322Z" fill="#EAEAEA"/>
<path d="M134.915 174.793L118.239 165.263L134.915 154.424L151.591 163.954L134.915 174.793Z" fill="#3A7DAF"/>
<path d="M118.24 165.263L134.915 154.424L118.24 144.894L101.569 155.733L118.24 165.263Z" fill="#EAEAEA"/>
<path d="M101.569 155.733L84.8936 146.203L101.569 135.364L118.24 144.894L101.569 155.733Z" fill="#3A7DAF"/>
<path d="M101.569 135.364L84.8935 125.834L68.2178 136.941L84.8935 146.203L101.569 135.364Z" fill="#EAEAEA"/>
<path d="M51.542 79.4147L190.497 158.824L329.453 79.4147L190.497 0L51.542 79.4147Z" fill="#9DDCFC"/>
<path d="M311.805 79.4152L300.774 85.7177L190.497 22.6927V10.0876L311.805 79.4152Z" fill="#92D5EF"/>
<path d="M190.497 22.6927V10.0876L69.1895 79.4152L80.2198 85.7177L190.497 22.6927Z" fill="#7EBFE0"/>
<path d="M159.621 102.102V117.23L194.911 97.0606V81.9325L159.621 102.102Z" fill="#4BA6DD"/>
<path d="M111.097 74.369L159.621 102.102V117.23L111.097 89.4971V74.369Z" fill="#53B5E5"/>
<path d="M194.911 97.0606V81.9325L159.621 102.102" fill="#4BA6DD"/>
<path d="M111.097 74.3689L146.386 54.2051L194.911 81.933L159.621 102.102L111.097 74.3689Z" fill="#52AEFF"/>
<path d="M128.739 79.452L155.208 64.3239L146.387 59.283L119.918 74.4111L128.739 79.452Z" fill="#152D42"/>
<path d="M146.387 62.3107L122.68 75.988L119.918 74.4111L146.387 59.283V62.3107Z" fill="#4BA6DD"/>
<path d="M146.387 59.283V62.3107L152.537 65.8536L155.208 64.324L146.387 59.283Z" fill="#4290B7"/>
<path d="M144.178 88.2357L170.646 73.1129L161.825 68.0667L135.356 83.1948L144.178 88.2357Z" fill="#152D42"/>
<path d="M161.825 71.0944L138.123 84.7717L135.356 83.1948L161.825 68.0667V71.0944Z" fill="#4BA6DD"/>
<path d="M161.825 68.0667V71.0944L167.975 74.6372L170.646 73.1129L161.825 68.0667Z" fill="#4290B7"/>
<path d="M159.44 97.0977L185.909 81.9695L177.088 76.9286L150.619 92.0567L159.44 97.0977Z" fill="#152D42"/>
<path d="M177.088 79.9563L153.386 93.6336L150.619 92.0567L177.088 76.9286V79.9563Z" fill="#4BA6DD"/>
<path d="M177.088 76.9286V79.9564L183.238 83.4992L185.909 81.9696L177.088 76.9286Z" fill="#4290B7"/>
<path d="M216.966 89.4964V81.9324L243.429 97.0605V104.625L216.966 89.4964Z" fill="#53B5E5"/>
<path d="M243.429 97.0607V104.625L261.076 94.5376V86.9735L243.429 97.0607Z" fill="#4A9BD8"/>
<path d="M216.966 81.9325L243.429 97.0606L261.077 86.9735L234.608 71.8506L216.966 81.9325Z" fill="#52AEFF"/>
<path d="M190.497 181.511V158.824L329.452 79.4148V102.102L190.497 181.511Z" fill="#7FBEDD"/>
<path d="M51.542 79.4148V102.102L190.497 181.511V158.824L51.542 79.4148Z" fill="#89D3FF"/>
</g>
<defs>
<linearGradient id="paint0_linear_1511_14355" x1="442.115" y1="65.2282" x2="213.021" y2="492.827" gradientUnits="userSpaceOnUse">
<stop stop-color="#89D3FF"/>
<stop offset="1" stop-color="#89D3FF" stop-opacity="0"/>
</linearGradient>
<linearGradient id="paint1_linear_1511_14355" x1="215.712" y1="215.302" x2="237.113" y2="209.688" gradientUnits="userSpaceOnUse">
<stop stop-color="#89D3FF"/>
<stop offset="1" stop-color="#89D3FF" stop-opacity="0"/>
</linearGradient>
<linearGradient id="paint2_linear_1511_14355" x1="170.005" y1="177.83" x2="86.1181" y2="200.155" gradientUnits="userSpaceOnUse">
<stop stop-color="#89D3FF"/>
<stop offset="1" stop-color="#89D3FF" stop-opacity="0"/>
</linearGradient>
<clipPath id="clip0_1511_14355">
<rect width="382" height="273" rx="5" fill="white"/>
</clipPath>
</defs>
</svg>
