<svg width="542" height="273" viewBox="0 0 542 273" fill="none" xmlns="http://www.w3.org/2000/svg">
<g clip-path="url(#clip0_1546_12392)">
<path d="M-1.35059 196.269L270.387 40.7076L542.125 196.269L270.387 351.831L-1.35059 196.269Z" fill="url(#paint0_linear_1546_12392)"/>
<path d="M380.665 203.336V102.496L270.388 165.521V266.361L380.665 203.336Z" fill="#4A9BD8"/>
<path d="M378.099 140.443L395.746 150.53V175.74L378.099 165.653V140.443Z" fill="#479EC9"/>
<path d="M395.746 175.74L397.95 174.479V149.269L395.746 150.53V175.74Z" fill="#1E4054"/>
<path d="M397.95 149.268L380.303 139.181L378.099 140.443L395.746 150.53L397.95 149.268Z" fill="#152D42"/>
<path d="M378.099 148.007L371.481 144.228L373.685 142.966L378.099 145.484V148.007Z" fill="#152D42"/>
<path d="M371.481 144.227V146.745L378.099 150.53V148.006L371.481 144.227Z" fill="#1E4054"/>
<path d="M378.099 160.612L371.481 156.832L373.685 155.571L378.099 158.089V160.612Z" fill="#152D42"/>
<path d="M371.481 156.832V159.35L378.099 163.135V160.612L371.481 156.832Z" fill="#1E4054"/>
<path d="M295.049 221.659V223.567L312.702 213.969V212.061L295.049 221.659Z" fill="#3A7DAF"/>
<path d="M317.072 209.37L303.96 201.222L295.097 206.284L295.049 221.659L317.072 209.685" fill="#418BCC"/>
<path d="M295.018 231.568V226.491L312.702 216.43L317.153 218.779L295.018 231.568Z" fill="#152D42"/>
<path d="M317.073 218.779V193.727L312.702 196.224V216.429L317.073 218.779Z" fill="#1E4054"/>
<path d="M295.097 206.285L295.018 231.568L317.153 218.779L317.073 193.727L295.097 206.285Z" fill="url(#paint1_linear_1546_12392)"/>
<path d="M327.807 228.184L345.077 218.317V198.138L336.442 193.097L331.843 195.615L327.807 193.307V228.184Z" fill="#3A7DAF"/>
<path d="M327.807 223.133L340.669 215.784L331.843 210.743L327.807 213.051V223.133Z" fill="#9ED2FF"/>
<path d="M345.077 198.137L327.807 188.05V182.799L345.077 172.927V198.137Z" fill="#152D42"/>
<path d="M349.113 221.04L345.077 218.317V172.927H351.397L349.113 185.906" fill="#1E4054"/>
<path d="M310.717 176.192V183.54L331.843 195.615V188.271L310.717 176.192Z" fill="#1E4054"/>
<path d="M331.843 188.272V195.615L371.546 172.928V165.58L331.843 188.272Z" fill="#479EC9"/>
<path d="M331.843 188.272L310.717 176.192L349.49 152.974L371.546 165.579L331.843 188.272Z" fill="#152D42"/>
<path d="M345.077 218.317L349.113 221.04L327.807 233.214V228.183L345.077 218.317Z" fill="#152D42"/>
<path d="M160.221 202.942V102.102L270.498 165.127V265.967L160.221 202.942Z" fill="#52AEFF"/>
<path d="M230.795 207.983L245.888 198.894V196.519L230.795 205.465V207.983Z" fill="#2E6587"/>
<path d="M230.794 205.465L186.684 179.882V182.773L230.794 207.983V205.465Z" fill="#3A7DAF"/>
<path d="M186.684 179.882L204.331 170.168L245.888 196.519L230.795 205.465L186.684 179.882Z" fill="#418BCC"/>
<path d="M230.795 207.982V213.023L232.521 214.012V206.947L230.795 207.982Z" fill="#2E6587"/>
<path d="M230.795 207.983L229.61 207.305V212.351L230.795 213.024V207.983Z" fill="#3A7DAF"/>
<path d="M186.684 182.773V187.814L187.666 188.377V183.336L186.684 182.773Z" fill="#3A7DAF"/>
<path d="M188.622 183.882V188.881L187.666 188.376V183.336L188.622 183.882Z" fill="#2E6587"/>
<path d="M193.301 173.953V176.235L192.425 176.723V174.453L193.301 173.953Z" fill="#2E6587"/>
<path d="M235.208 209.344L245.888 203.042V215.447L235.208 209.344Z" fill="#418BCC"/>
<path d="M235.208 209.344V215.547L236.228 216.13V209.928L235.208 209.344Z" fill="#3A7DAF"/>
<path d="M236.998 210.369V216.572L236.228 216.13V209.928L236.998 210.369Z" fill="#2E6587"/>
<path d="M245.888 216.609L235.208 210.506V209.344L245.888 215.447V216.609Z" fill="#3A7DAF"/>
<path d="M182.276 180.255L193.301 173.953L182.276 167.65V180.255Z" fill="#418BCC"/>
<path d="M182.276 180.255V181.322L192.425 175.645V174.452" fill="#2E6587"/>
<path d="M173.45 190.337L182.277 185.296V149.999L173.45 144.958V190.337Z" fill="#1E4054"/>
<path d="M173.45 190.338L245.889 231.732V221.65L182.277 185.297L173.45 190.338Z" fill="#152D42"/>
<path d="M226.52 217.019L230.918 214.422L224.178 210.643L219.771 213.16L226.52 217.019Z" fill="#9ED2FF"/>
<path d="M219.771 213.16V214.553L226.52 218.411V217.018L230.918 214.422V215.815L226.52 218.411V217.018L219.771 213.16Z" fill="white"/>
<path d="M245.889 221.65V186.353L173.45 144.958V190.337L245.889 231.732V221.65Z" fill="url(#paint2_linear_1546_12392)"/>
<path d="M248.267 211.599V192.544L264.937 183.014V202.074L248.267 211.599Z" fill="#CCCCCC"/>
<path d="M248.267 173.484L231.591 184.066V202.074L248.267 211.599V193.853L264.937 183.014L248.267 173.484Z" fill="#418BCC"/>
<path d="M231.591 163.953L214.915 174.792V192.543L231.591 202.073V184.322L248.266 173.483L231.591 163.953Z" fill="white"/>
<path d="M214.915 154.424L198.239 165.263V183.014L214.915 192.544V174.793L231.591 163.954L214.915 154.424Z" fill="#418BCC"/>
<path d="M198.24 144.894L181.569 155.733V173.484L198.24 183.014V165.263L214.915 154.424L198.24 144.894Z" fill="white"/>
<path d="M181.569 135.364L164.894 146.203V163.954L181.569 173.484V155.733L198.24 144.894L181.569 135.364Z" fill="#418BCC"/>
<path d="M164.893 125.834L148.218 136.941V154.424L164.893 163.954V146.203L181.569 135.364L164.893 125.834Z" fill="white"/>
<path d="M231.591 184.323L248.267 193.853L264.937 183.014L248.267 173.484L231.591 184.323Z" fill="#3A7DAF"/>
<path d="M231.591 184.322L214.915 174.792L231.591 163.953L248.266 173.483L231.591 184.322Z" fill="#EAEAEA"/>
<path d="M214.915 174.793L198.239 165.263L214.915 154.424L231.591 163.954L214.915 174.793Z" fill="#3A7DAF"/>
<path d="M198.24 165.263L214.915 154.424L198.24 144.894L181.569 155.733L198.24 165.263Z" fill="#EAEAEA"/>
<path d="M181.569 155.733L164.894 146.203L181.569 135.364L198.24 144.894L181.569 155.733Z" fill="#3A7DAF"/>
<path d="M181.569 135.364L164.893 125.834L148.218 136.941L164.893 146.203L181.569 135.364Z" fill="#EAEAEA"/>
<path d="M132 79.4147L270.955 158.824L409.911 79.4147L270.955 0L132 79.4147Z" fill="#9DDCFC"/>
<path d="M392.263 79.4152L381.232 85.7177L270.955 22.6927V10.0876L392.263 79.4152Z" fill="#92D5EF"/>
<path d="M270.955 22.6927V10.0876L149.647 79.4152L160.678 85.7177L270.955 22.6927Z" fill="#7EBFE0"/>
<path d="M240.079 102.102V117.23L275.369 97.0606V81.9325L240.079 102.102Z" fill="#4BA6DD"/>
<path d="M191.555 74.369L240.079 102.102V117.23L191.555 89.4971V74.369Z" fill="#53B5E5"/>
<path d="M275.369 97.0606V81.9325L240.079 102.102" fill="#4BA6DD"/>
<path d="M191.555 74.3689L226.844 54.2051L275.369 81.933L240.079 102.102L191.555 74.3689Z" fill="#52AEFF"/>
<path d="M209.197 79.452L235.666 64.3239L226.845 59.283L200.376 74.4111L209.197 79.452Z" fill="#152D42"/>
<path d="M226.845 62.3107L203.138 75.988L200.376 74.4111L226.845 59.283V62.3107Z" fill="#4BA6DD"/>
<path d="M226.845 59.283V62.3107L232.995 65.8536L235.666 64.324L226.845 59.283Z" fill="#4290B7"/>
<path d="M224.636 88.2357L251.104 73.1129L242.283 68.0667L215.814 83.1948L224.636 88.2357Z" fill="#152D42"/>
<path d="M242.283 71.0944L218.581 84.7717L215.814 83.1948L242.283 68.0667V71.0944Z" fill="#4BA6DD"/>
<path d="M242.283 68.0667V71.0944L248.433 74.6372L251.104 73.1129L242.283 68.0667Z" fill="#4290B7"/>
<path d="M239.898 97.0977L266.367 81.9695L257.546 76.9286L231.077 92.0567L239.898 97.0977Z" fill="#152D42"/>
<path d="M257.546 79.9563L233.844 93.6336L231.077 92.0567L257.546 76.9286V79.9563Z" fill="#4BA6DD"/>
<path d="M257.546 76.9286V79.9564L263.696 83.4992L266.367 81.9696L257.546 76.9286Z" fill="#4290B7"/>
<path d="M297.424 89.4964V81.9324L323.887 97.0605V104.625L297.424 89.4964Z" fill="#53B5E5"/>
<path d="M323.887 97.0607V104.625L341.534 94.5376V86.9735L323.887 97.0607Z" fill="#4A9BD8"/>
<path d="M297.424 81.9325L323.887 97.0606L341.535 86.9735L315.066 71.8506L297.424 81.9325Z" fill="#52AEFF"/>
<path d="M270.955 181.511V158.824L409.91 79.4148V102.102L270.955 181.511Z" fill="#7FBEDD"/>
<path d="M132 79.4148V102.102L270.955 181.511V158.824L132 79.4148Z" fill="#89D3FF"/>
</g>
<defs>
<linearGradient id="paint0_linear_1546_12392" x1="522.115" y1="65.2282" x2="293.021" y2="492.827" gradientUnits="userSpaceOnUse">
<stop stop-color="#89D3FF"/>
<stop offset="1" stop-color="#89D3FF" stop-opacity="0"/>
</linearGradient>
<linearGradient id="paint1_linear_1546_12392" x1="295.712" y1="215.302" x2="317.113" y2="209.688" gradientUnits="userSpaceOnUse">
<stop stop-color="#89D3FF"/>
<stop offset="1" stop-color="#89D3FF" stop-opacity="0"/>
</linearGradient>
<linearGradient id="paint2_linear_1546_12392" x1="250.005" y1="177.83" x2="166.118" y2="200.155" gradientUnits="userSpaceOnUse">
<stop stop-color="#89D3FF"/>
<stop offset="1" stop-color="#89D3FF" stop-opacity="0"/>
</linearGradient>
<clipPath id="clip0_1546_12392">
<rect width="542" height="273" rx="5" fill="white"/>
</clipPath>
</defs>
</svg>
