<svg width="32" height="32" viewBox="0 0 32 32" fill="none" xmlns="http://www.w3.org/2000/svg">
<path fill-rule="evenodd" clip-rule="evenodd" d="M16 30C23.732 30 30 23.732 30 16C30 8.26801 23.732 2 16 2C8.26801 2 2 8.26801 2 16C2 23.732 8.26801 30 16 30ZM16 32C24.8366 32 32 24.8366 32 16C32 7.16344 24.8366 0 16 0C7.16344 0 0 7.16344 0 16C0 24.8366 7.16344 32 16 32Z" fill="#303030"/>
<path d="M14.8196 18.592C14.8196 18.1233 14.8956 17.7117 15.0476 17.357C15.1996 17.0023 15.3959 16.6857 15.6366 16.407C15.8772 16.1283 16.1306 15.8687 16.3966 15.628C16.6752 15.3873 16.9349 15.153 17.1756 14.925C17.4162 14.697 17.6126 14.4563 17.7646 14.203C17.9166 13.9497 17.9926 13.6647 17.9926 13.348C17.9926 12.816 17.7772 12.3853 17.3466 12.056C16.9159 11.7267 16.3396 11.562 15.6176 11.562C14.9209 11.562 14.3129 11.6887 13.7936 11.942C13.2869 12.1953 12.8626 12.5563 12.5206 13.025L10.6776 11.828C11.2096 11.106 11.9062 10.5423 12.7676 10.137C13.6289 9.719 14.6486 9.51 15.8266 9.51C16.7512 9.51 17.5619 9.64934 18.2586 9.928C18.9552 10.194 19.4999 10.5867 19.8926 11.106C20.2852 11.6127 20.4816 12.2333 20.4816 12.968C20.4816 13.4747 20.3992 13.918 20.2346 14.298C20.0826 14.678 19.8799 15.0137 19.6266 15.305C19.3859 15.5837 19.1262 15.8497 18.8476 16.103C18.5689 16.3437 18.3029 16.5843 18.0496 16.825C17.8089 17.0657 17.6126 17.3253 17.4606 17.604C17.3086 17.8827 17.2326 18.212 17.2326 18.592H14.8196ZM16.0356 23.133C15.5922 23.133 15.2249 22.9873 14.9336 22.696C14.6549 22.4047 14.5156 22.0563 14.5156 21.651C14.5156 21.2457 14.6549 20.9037 14.9336 20.625C15.2249 20.3337 15.5922 20.188 16.0356 20.188C16.4789 20.188 16.8399 20.3337 17.1186 20.625C17.3972 20.9037 17.5366 21.2457 17.5366 21.651C17.5366 22.0563 17.3972 22.4047 17.1186 22.696C16.8399 22.9873 16.4789 23.133 16.0356 23.133Z" fill="#303030"/>
</svg>
