<svg width="32" height="32" viewBox="0 0 32 32" fill="none" xmlns="http://www.w3.org/2000/svg">
<path d="M32 16C32 24.8366 24.8366 32 16 32C7.16344 32 0 24.8366 0 16C0 7.16344 7.16344 0 16 0C24.8366 0 32 7.16344 32 16Z" fill="#303030"/>
<path d="M14.8195 18.592C14.8195 18.1233 14.8955 17.7117 15.0475 17.357C15.1995 17.0023 15.3958 16.6857 15.6365 16.407C15.8771 16.1283 16.1305 15.8687 16.3965 15.628C16.6751 15.3873 16.9348 15.153 17.1755 14.925C17.4161 14.697 17.6125 14.4563 17.7645 14.203C17.9165 13.9497 17.9925 13.6647 17.9925 13.348C17.9925 12.816 17.7771 12.3853 17.3465 12.056C16.9158 11.7267 16.3395 11.562 15.6175 11.562C14.9208 11.562 14.3128 11.6887 13.7935 11.942C13.2868 12.1953 12.8625 12.5563 12.5205 13.025L10.6775 11.828C11.2095 11.106 11.9061 10.5423 12.7675 10.137C13.6288 9.719 14.6485 9.51 15.8265 9.51C16.7511 9.51 17.5618 9.64934 18.2585 9.928C18.9551 10.194 19.4998 10.5867 19.8925 11.106C20.2851 11.6127 20.4815 12.2333 20.4815 12.968C20.4815 13.4747 20.3991 13.918 20.2345 14.298C20.0825 14.678 19.8798 15.0137 19.6265 15.305C19.3858 15.5837 19.1261 15.8497 18.8475 16.103C18.5688 16.3437 18.3028 16.5843 18.0495 16.825C17.8088 17.0657 17.6125 17.3253 17.4605 17.604C17.3085 17.8827 17.2325 18.212 17.2325 18.592H14.8195ZM16.0355 23.133C15.5921 23.133 15.2248 22.9873 14.9335 22.696C14.6548 22.4047 14.5155 22.0563 14.5155 21.651C14.5155 21.2457 14.6548 20.9037 14.9335 20.625C15.2248 20.3337 15.5921 20.188 16.0355 20.188C16.4788 20.188 16.8398 20.3337 17.1185 20.625C17.3971 20.9037 17.5365 21.2457 17.5365 21.651C17.5365 22.0563 17.3971 22.4047 17.1185 22.696C16.8398 22.9873 16.4788 23.133 16.0355 23.133Z" fill="white"/>
</svg>
