<svg width="851" height="480" viewBox="0 0 851 480" fill="none" xmlns="http://www.w3.org/2000/svg">
<path d="M581.365 -1.0614L579.391 -0.563566M579.391 -0.563566C433.583 36.6265 305.068 136.421 236.54 283.315C168.012 430.208 174.126 592.788 239.302 728.437M579.391 -0.563566C644.572 135.076 650.693 297.639 582.157 444.55C513.621 591.461 385.11 691.247 239.302 728.437M579.391 -0.563566L578.513 -2.39177M239.302 728.437C239.592 729.059 239.89 729.664 240.193 730.26M239.302 728.437C238.643 728.606 237.992 728.778 237.341 728.93M129.297 105.282L830.746 432.518M31.3089 315.324L732.758 642.561M791.729 542.194C704.948 728.213 494.234 816.924 303.537 756.053C294.235 753.094 284.985 749.762 275.787 746.058C274.521 745.55 273.251 745.03 271.984 744.501L270.654 743.953L270.186 743.735C268.919 743.206 267.644 742.673 266.376 742.124C264.65 741.38 262.929 740.626 261.213 739.86C259.86 739.228 258.506 738.597 257.144 737.962L253.739 736.373C247.387 733.368 241.143 730.224 235.004 726.939C229.643 724.079 224.373 721.11 219.196 718.032C42.8641 613.394 -28.7853 390.192 59.6339 200.661C148.053 11.1295 365.121 -77.3815 558.597 -9.5811C564.293 -7.61432 569.954 -5.48424 575.58 -3.19089C582.037 -0.606256 588.459 2.15848 594.846 5.10332L598.251 6.69186C599.613 7.32727 600.967 7.95869 602.32 8.59013C604.023 9.38439 605.707 10.2183 607.372 11.092C608.624 11.6758 609.835 12.3446 611.054 12.9754L611.522 13.1938L612.797 13.861C614.016 14.4918 615.231 15.1312 616.434 15.775C625.165 20.4487 633.661 25.396 641.923 30.6169C811.096 137.713 878.509 356.175 791.729 542.194Z" stroke="url(#paint0_linear_281_11042)" stroke-width="42" stroke-miterlimit="10"/>
<defs>
<linearGradient id="paint0_linear_281_11042" x1="908.467" y1="221.604" x2="-59.0076" y2="610.784" gradientUnits="userSpaceOnUse">
<stop stop-color="#89D3FF"/>
<stop offset="1" stop-color="#89D3FF" stop-opacity="0"/>
</linearGradient>
</defs>
</svg>
