<svg width="233" height="255" viewBox="0 0 233 255" fill="none" xmlns="http://www.w3.org/2000/svg">
<path d="M216.68 2.26053L215.883 2.66904M215.883 2.66904C157.059 33.0256 111.837 88.5081 96.9846 158.249C82.1323 227.99 100.826 297.076 142.174 348.778M215.883 2.66904C257.232 54.3674 275.928 123.445 261.074 193.194C246.22 262.943 200.999 318.422 142.174 348.778M215.883 2.66904L215.326 1.97219M142.174 348.778C142.36 349.016 142.548 349.246 142.737 349.472M142.174 348.778C141.909 348.916 141.647 349.054 141.383 349.184M33.4136 92.5377L366.442 163.46M12.1764 192.26L345.205 263.183M360.56 214.33C341.752 302.647 260.199 361.505 172.439 354.265C168.159 353.917 163.865 353.403 159.556 352.725C158.963 352.632 158.367 352.535 157.772 352.433L157.147 352.33L156.925 352.282C156.33 352.181 155.731 352.079 155.133 351.968C154.32 351.82 153.507 351.667 152.696 351.508C152.054 351.372 151.411 351.235 150.764 351.097L149.148 350.753C146.128 350.093 143.14 349.362 140.184 348.561C137.603 347.865 135.051 347.113 132.527 346.306C46.5978 318.886 -6.18131 230.293 12.982 140.309C32.1453 50.3248 116.441 -9.07564 206.078 0.859477C208.714 1.13946 211.351 1.49286 213.989 1.91969C217.013 2.38916 220.039 2.93936 223.068 3.57029L224.684 3.91458C225.331 4.05229 225.974 4.18914 226.616 4.326C227.425 4.49814 228.229 4.68912 229.029 4.89895C229.623 5.02547 230.209 5.19237 230.794 5.34226L231.016 5.3896L231.628 5.54955C232.213 5.69944 232.797 5.85337 233.377 6.01047C237.581 7.15068 241.712 8.43138 245.77 9.85256C328.874 39.0345 379.368 126.014 360.56 214.33Z" stroke="url(#paint0_linear_702_2273)" stroke-width="16.1674" stroke-miterlimit="10"/>
<defs>
<linearGradient id="paint0_linear_702_2273" x1="378.906" y1="65.3679" x2="2.67224" y2="327.838" gradientUnits="userSpaceOnUse">
<stop stop-color="#89D3FF"/>
<stop offset="1" stop-color="#89D3FF" stop-opacity="0"/>
</linearGradient>
</defs>
</svg>
