<svg width="91" height="76" viewBox="0 0 91 76" fill="none" xmlns="http://www.w3.org/2000/svg">
<path d="M103.874 52.0674C103.874 80.5833 80.7572 103.7 52.2413 103.7C23.7254 103.7 0.608688 80.5833 0.608688 52.0674C0.608688 23.5515 23.7254 0.434784 52.2413 0.434784C80.7572 0.434784 103.874 23.5515 103.874 52.0674Z" fill="url(#paint0_linear_742_891)"/>
<path fill-rule="evenodd" clip-rule="evenodd" d="M52.2413 97.5041C77.3353 97.5041 97.678 77.1614 97.678 52.0674C97.678 26.9734 77.3353 6.6307 52.2413 6.6307C27.1473 6.6307 6.8046 26.9734 6.8046 52.0674C6.8046 77.1614 27.1473 97.5041 52.2413 97.5041ZM52.2413 103.7C80.7572 103.7 103.874 80.5833 103.874 52.0674C103.874 23.5515 80.7572 0.434784 52.2413 0.434784C23.7254 0.434784 0.608688 23.5515 0.608688 52.0674C0.608688 80.5833 23.7254 103.7 52.2413 103.7Z" fill="white"/>
<path d="M31.287 47.9279C31.287 49.5817 31.6818 51.0751 32.4716 52.408C33.286 53.7162 34.3843 54.7653 35.7663 55.5551C37.1731 56.3203 38.7279 56.7029 40.4308 56.7029C41.2699 56.7029 42.035 56.5919 42.726 56.3697C43.4418 56.1229 44.0711 55.7773 44.614 55.333C45.1817 54.8887 45.6259 54.3827 45.9468 53.8149C45.9221 55.3947 45.6753 56.7523 45.2064 57.8877C44.7621 58.9985 44.1328 59.8501 43.3184 60.4425C42.5286 61.0349 41.5784 61.3311 40.4678 61.3311C39.3819 61.3311 38.3577 61.0596 37.3952 60.5166C36.4574 59.9982 35.6923 59.2824 35.1 58.3691L32.2495 61.4792C33.212 62.8121 34.3966 63.8365 35.8034 64.5523C37.2101 65.2682 38.7403 65.6261 40.3938 65.6261C42.4669 65.6261 44.2685 65.0583 45.7987 63.9229C47.3288 62.7875 48.5011 61.1213 49.3156 58.9245C50.1547 56.7276 50.5742 54.0371 50.5742 50.8529C50.5742 48.3105 50.1793 46.1507 49.3896 44.3734C48.5998 42.5715 47.4769 41.1892 46.0208 40.2266C44.5894 39.2639 42.8741 38.7826 40.8751 38.7826C39.0734 38.7826 37.4446 39.1899 35.9885 40.0044C34.5324 40.819 33.3847 41.9174 32.5456 43.2997C31.7065 44.682 31.287 46.2247 31.287 47.9279ZM40.8751 42.9665C41.7389 42.9665 42.5409 43.201 43.2813 43.67C44.0217 44.1143 44.614 44.719 45.0583 45.4842C45.5025 46.2247 45.7246 47.0393 45.7246 47.9279C45.7246 48.8165 45.5025 49.6311 45.0583 50.3716C44.614 51.0874 44.0217 51.6675 43.2813 52.1118C42.5656 52.5314 41.7635 52.7412 40.8751 52.7412C39.9866 52.7412 39.1722 52.5314 38.4318 52.1118C37.6914 51.6675 37.0991 51.0874 36.6548 50.3716C36.2353 49.6311 36.0255 48.8165 36.0255 47.9279C36.0255 47.0146 36.2476 46.1877 36.6918 45.4472C37.1361 44.7067 37.7284 44.1143 38.4688 43.67C39.2092 43.201 40.0113 42.9665 40.8751 42.9665Z" fill="white"/>
<path d="M53.0866 47.9279C53.0866 49.5817 53.4815 51.0751 54.2713 52.408C55.0857 53.7162 56.184 54.7653 57.566 55.5551C58.9728 56.3203 60.5276 56.7029 62.2305 56.7029C63.0696 56.7029 63.8347 56.5919 64.5257 56.3697C65.2414 56.1229 65.8708 55.7773 66.4137 55.333C66.9814 54.8887 67.4256 54.3827 67.7464 53.8149C67.7218 55.3947 67.475 56.7523 67.0061 57.8877C66.5618 58.9985 65.9325 59.8501 65.118 60.4425C64.3283 61.0349 63.3781 61.3311 62.2675 61.3311C61.1816 61.3311 60.1574 61.0596 59.1949 60.5166C58.2571 59.9982 57.492 59.2824 56.8997 58.3691L54.0492 61.4792C55.0117 62.8121 56.1963 63.8365 57.6031 64.5523C59.0098 65.2682 60.5399 65.6261 62.1935 65.6261C64.2666 65.6261 66.0682 65.0583 67.5984 63.9229C69.1285 62.7875 70.3008 61.1213 71.1152 58.9245C71.9544 56.7276 72.3739 54.0371 72.3739 50.8529C72.3739 48.3105 71.979 46.1507 71.1893 44.3734C70.3995 42.5715 69.2766 41.1892 67.8205 40.2266C66.3891 39.2639 64.6738 38.7826 62.6747 38.7826C60.8731 38.7826 59.2443 39.1899 57.7881 40.0044C56.332 40.819 55.1844 41.9174 54.3453 43.2997C53.5062 44.682 53.0866 46.2247 53.0866 47.9279ZM62.6747 42.9665C63.5385 42.9665 64.3406 43.201 65.081 43.67C65.8214 44.1143 66.4137 44.719 66.858 45.4842C67.3022 46.2247 67.5243 47.0393 67.5243 47.9279C67.5243 48.8165 67.3022 49.6311 66.858 50.3716C66.4137 51.0874 65.8214 51.6675 65.081 52.1118C64.3653 52.5314 63.5632 52.7412 62.6747 52.7412C61.7863 52.7412 60.9718 52.5314 60.2314 52.1118C59.4911 51.6675 58.8987 51.0874 58.4545 50.3716C58.0349 49.6311 57.8252 48.8165 57.8252 47.9279C57.8252 47.0146 58.0473 46.1877 58.4915 45.4472C58.9358 44.7067 59.5281 44.1143 60.2685 43.67C61.0089 43.201 61.811 42.9665 62.6747 42.9665Z" fill="white"/>
<defs>
<linearGradient id="paint0_linear_742_891" x1="100.072" y1="8.57344" x2="8.93992" y2="105.948" gradientUnits="userSpaceOnUse">
<stop stop-color="#89D3FF"/>
<stop offset="1" stop-color="#89D3FF" stop-opacity="0"/>
</linearGradient>
</defs>
</svg>
