<svg width="165" height="138" viewBox="0 0 165 138" fill="none" xmlns="http://www.w3.org/2000/svg">
<path d="M188.5 94.25C188.5 146.303 146.303 188.5 94.2502 188.5C42.1974 188.5 0.000244141 146.303 0.000244141 94.25C0.000244141 42.1972 42.1974 0 94.2502 0C146.303 0 188.5 42.1972 188.5 94.25Z" fill="url(#paint0_linear_362_28)"/>
<path fill-rule="evenodd" clip-rule="evenodd" d="M94.2502 177.19C140.057 177.19 177.19 140.057 177.19 94.25C177.19 48.4435 140.057 11.31 94.2502 11.31C48.4437 11.31 11.3102 48.4435 11.3102 94.25C11.3102 140.057 48.4437 177.19 94.2502 177.19ZM94.2502 188.5C146.303 188.5 188.5 146.303 188.5 94.25C188.5 42.1972 146.303 0 94.2502 0C42.1974 0 0.000244141 42.1972 0.000244141 94.25C0.000244141 146.303 42.1974 188.5 94.2502 188.5Z" fill="white"/>
<path d="M56.0002 86.6938C56.0002 89.7126 56.7211 92.4386 58.1627 94.8717C59.6493 97.2598 61.6541 99.1747 64.1769 100.617C66.7448 102.013 69.583 102.712 72.6914 102.712C74.2231 102.712 75.6197 102.509 76.8811 102.103C78.1876 101.653 79.3364 101.022 80.3275 100.211C81.3636 99.4 82.1745 98.4763 82.7602 97.44C82.7152 100.324 82.2646 102.802 81.4087 104.874C80.5978 106.902 79.449 108.457 77.9623 109.538C76.5207 110.619 74.7863 111.16 72.759 111.16C70.7768 111.16 68.9072 110.664 67.1502 109.673C65.4383 108.727 64.0417 107.42 62.9605 105.753L57.7572 111.43C59.5142 113.863 61.6766 115.733 64.2445 117.04C66.8123 118.347 69.6055 119 72.6239 119C76.4081 119 79.6968 117.964 82.4899 115.891C85.283 113.818 87.4229 110.777 88.9096 106.767C90.4413 102.757 91.2072 97.8455 91.2072 92.0331C91.2072 87.3922 90.4864 83.4497 89.0447 80.2055C87.6031 76.9163 85.5533 74.3931 82.8954 72.6359C80.2824 70.8786 77.1514 70 73.5023 70C70.2137 70 67.2403 70.7434 64.5824 72.2303C61.9244 73.7172 59.8295 75.7223 58.2978 78.2455C56.7661 80.7687 56.0002 83.5848 56.0002 86.6938ZM73.5023 77.6372C75.0791 77.6372 76.5432 78.0653 77.8948 78.9214C79.2463 79.7324 80.3275 80.8363 81.1384 82.2331C81.9493 83.5848 82.3547 85.0717 82.3547 86.6938C82.3547 88.3159 81.9493 89.8028 81.1384 91.1545C80.3275 92.4611 79.2463 93.52 77.8948 94.331C76.5883 95.097 75.1242 95.48 73.5023 95.48C71.8805 95.48 70.3939 95.097 69.0423 94.331C67.6908 93.52 66.6096 92.4611 65.7987 91.1545C65.0329 89.8028 64.6499 88.3159 64.6499 86.6938C64.6499 85.0267 65.0554 83.5172 65.8663 82.1655C66.6772 80.8138 67.7584 79.7324 69.1099 78.9214C70.4614 78.0653 71.9256 77.6372 73.5023 77.6372Z" fill="white"/>
<path d="M95.7933 86.6938C95.7933 89.7126 96.5141 92.4386 97.9557 94.8717C99.4424 97.2598 101.447 99.1747 103.97 100.617C106.538 102.013 109.376 102.712 112.485 102.712C114.016 102.712 115.413 102.509 116.674 102.103C117.981 101.653 119.129 101.022 120.121 100.211C121.157 99.4 121.968 98.4763 122.553 97.44C122.508 100.324 122.058 102.802 121.202 104.874C120.391 106.902 119.242 108.457 117.755 109.538C116.314 110.619 114.579 111.16 112.552 111.16C110.57 111.16 108.7 110.664 106.943 109.673C105.231 108.727 103.835 107.42 102.754 105.753L97.5503 111.43C99.3073 113.863 101.47 115.733 104.038 117.04C106.605 118.347 109.399 119 112.417 119C116.201 119 119.49 117.964 122.283 115.891C125.076 113.818 127.216 110.777 128.703 106.767C130.234 102.757 131 97.8455 131 92.0331C131 87.3922 130.279 83.4497 128.838 80.2055C127.396 76.9163 125.346 74.3931 122.688 72.6359C120.076 70.8786 116.945 70 113.295 70C110.007 70 107.033 70.7434 104.375 72.2303C101.717 73.7172 99.6226 75.7223 98.0909 78.2455C96.5592 80.7687 95.7933 83.5848 95.7933 86.6938ZM113.295 77.6372C114.872 77.6372 116.336 78.0653 117.688 78.9214C119.039 79.7324 120.121 80.8363 120.931 82.2331C121.742 83.5848 122.148 85.0717 122.148 86.6938C122.148 88.3159 121.742 89.8028 120.931 91.1545C120.121 92.4611 119.039 93.52 117.688 94.331C116.381 95.097 114.917 95.48 113.295 95.48C111.674 95.48 110.187 95.097 108.835 94.331C107.484 93.52 106.403 92.4611 105.592 91.1545C104.826 89.8028 104.443 88.3159 104.443 86.6938C104.443 85.0267 104.848 83.5172 105.659 82.1655C106.47 80.8138 107.551 79.7324 108.903 78.9214C110.255 78.0653 111.719 77.6372 113.295 77.6372Z" fill="white"/>
<defs>
<linearGradient id="paint0_linear_362_28" x1="181.56" y1="14.8563" x2="15.208" y2="192.603" gradientUnits="userSpaceOnUse">
<stop stop-color="#89D3FF"/>
<stop offset="1" stop-color="#89D3FF" stop-opacity="0"/>
</linearGradient>
</defs>
</svg>
