<svg width="162" height="26" viewBox="0 0 162 26" fill="none" xmlns="http://www.w3.org/2000/svg">
<path d="M0 25.5691H6.25237L6.17118 15.3343L18.6759 25.5691H26.6335L13.1543 12.605L25.8621 0.430938H18.1075L6.17118 10.5221L6.25237 0.430938H0V25.5691Z" fill="#52AEFF"/>
<path d="M41.9751 26C50.7447 26 57.1189 20.1464 57.1189 13V12.9282C57.1189 5.78177 50.8259 0 42.0563 0C33.2868 0 26.9126 5.85359 26.9126 13V13.0718C26.9126 20.2182 33.2056 26 41.9751 26ZM42.0563 20.9006C37.0219 20.9006 33.8721 17.3094 33.8721 13V12.9282C33.8721 8.61878 36.9407 5.09945 41.9751 5.09945C47.0095 5.09945 50.1593 8.69061 50.1593 13V13.0718C50.1593 17.3812 47.0907 20.9006 42.0563 20.9006Z" fill="#52AEFF"/>
<path d="M61.4984 25.5691H92.4015L89.9013 20.5414L80.154 0.419355H73.5979L61.4984 25.5691ZM76.8688 6.35635L83.4054 20.7569H70.3322L76.8688 6.35635Z" fill="#52AEFF"/>
<path d="M124.728 25.5691V0.430938H118.76L105.727 16.3398V0.430938H99.4746V25.5691H104.996L118.475 9.15746V25.5691H124.728Z" fill="#52AEFF"/>
<path d="M133.58 25.5691H139.711V9.26519L147.628 18.6347H147.79L155.788 9.15746V25.5691H162V0.430938H155.26L147.79 9.80042L140.32 0.430938H133.58V25.5691Z" fill="#52AEFF"/>
</svg>
