<svg width="162" height="26" viewBox="0 0 162 26" fill="none" xmlns="http://www.w3.org/2000/svg">
<path d="M0 25.5691H6.18775L6.10739 15.3343L18.4829 25.5691H26.3582L13.0184 12.605L25.5948 0.430938H17.9204L6.10739 10.5221L6.18775 0.430938H0V25.5691Z" fill="#52AEFF"/>
<path d="M43.2157 26C51.8946 26 58.2029 20.1464 58.2029 13V12.9282C58.2029 5.78177 51.975 0 43.2961 0C34.6171 0 28.3088 5.85359 28.3088 13V13.0718C28.3088 20.2182 34.5368 26 43.2157 26ZM43.2961 20.9006C38.3137 20.9006 34.7779 17.3094 34.7779 13V12.9282C34.7779 8.61878 38.2333 5.09945 43.2157 5.09945C48.198 5.09945 51.7339 8.69061 51.7339 13V13.0718C51.7339 17.3812 48.2784 20.9006 43.2961 20.9006Z" fill="#52AEFF"/>
<path d="M62.1186 20.5414V25.5691H67.9045H87.7536H93.5395V20.5414H90.6466L81.0837 0.25138H74.5745L64.9312 20.5414H62.1186ZM77.7487 6.35635L84.2177 20.7569H71.2797L77.7487 6.35635Z" fill="#52AEFF"/>
<path d="M125.113 25.5691V0.430938H119.206L106.309 16.3398V0.430938H100.121V25.5691H105.585L118.925 9.15746V25.5691H125.113Z" fill="#52AEFF"/>
<path d="M133.874 25.5691H139.941V9.26519L147.776 18.6347H147.937L155.852 9.15746V25.5691H162V0.430938H155.33L147.937 9.80042L140.544 0.430938H133.874V25.5691Z" fill="#52AEFF"/>
</svg>
