<svg width="48" height="48" viewBox="0 0 48 48" fill="none" xmlns="http://www.w3.org/2000/svg">
<g clip-path="url(#clip0_1300_13107)">
<path d="M24 0C17.6362 0 11.5275 2.53013 7.03125 7.02938C2.53036 11.5304 0.00124676 17.6347 0 24C0 30.3626 2.53125 36.4714 7.03125 40.9706C11.5275 45.4699 17.6362 48 24 48C30.3638 48 36.4725 45.4699 40.9688 40.9706C45.4688 36.4714 48 30.3626 48 24C48 17.6374 45.4688 11.5286 40.9688 7.02938C36.4725 2.53013 30.3638 0 24 0Z" fill="#52AEFF"/>
<path d="M24 0C17.6362 0 11.5275 2.53013 7.03125 7.02938C2.53036 11.5304 0.00124676 17.6347 0 24C0 30.3626 2.53125 36.4714 7.03125 40.9706C11.5275 45.4699 17.6362 48 24 48C30.3638 48 36.4725 45.4699 40.9688 40.9706C45.4688 36.4714 48 30.3626 48 24C48 17.6374 45.4688 11.5286 40.9688 7.02938C36.4725 2.53013 30.3638 0 24 0Z" fill="url(#paint0_linear_1300_13107)"/>
<path d="M10.8638 23.7465C17.8613 20.6985 22.5263 18.6888 24.8588 17.718C31.5263 14.9456 32.9101 14.4641 33.8138 14.4478C34.0126 14.4446 34.4551 14.4937 34.7438 14.7271C34.9838 14.924 35.0513 15.1903 35.0851 15.3772C35.1151 15.564 35.1563 15.9896 35.1226 16.3218C34.7626 20.1168 33.1988 29.3261 32.4038 33.5767C32.0701 35.3752 31.4063 35.9782 30.7651 36.0371C29.3701 36.1653 28.3126 35.1161 26.9626 34.2315C24.8513 32.8466 23.6588 31.9848 21.6076 30.6337C19.2376 29.0722 20.7751 28.2138 22.1251 26.8113C22.4776 26.4442 28.6201 20.8586 28.7363 20.352C28.7513 20.2886 28.7663 20.0523 28.6238 19.9278C28.4851 19.803 28.2788 19.8457 28.1288 19.8795C27.9151 19.9275 24.5438 22.158 18.0038 26.5706C17.0476 27.2283 16.1813 27.549 15.4013 27.5321C14.5463 27.5137 12.8963 27.0476 11.6701 26.6493C10.1701 26.1607 8.97381 25.9023 9.07881 25.0725C9.13131 24.6405 9.72756 24.1983 10.8638 23.7465Z" fill="white"/>
</g>
<defs>
<linearGradient id="paint0_linear_1300_13107" x1="46.2327" y1="3.78303" x2="3.87254" y2="49.0448" gradientUnits="userSpaceOnUse">
<stop stop-color="#89D3FF"/>
<stop offset="1" stop-color="#89D3FF" stop-opacity="0"/>
</linearGradient>
<clipPath id="clip0_1300_13107">
<rect width="48" height="48" fill="white"/>
</clipPath>
</defs>
</svg>
